{"title":"The last secrets of the Axis of Evil.mp4 dvd rip","uid":8901144,"size":494461607,"categoryP":"video","categoryS":"movies","magnet":"?xt=urn:btih:8b07fc135d1be5e866f4daf33e1f3aed5992f3f8&amp;dn=The+last+secrets+of+the+Axis+of+Evil.mp4+dvd+rip&amp;tr=udp%3A%2F%2Ftracker.openbittorrent.com%3A80&amp;tr=udp%3A%2F%2Fopen.demonii.com%3A1337&amp;tr=udp%3A%2F%2Ftracker.coppersurfer.tk%3A6969&amp;tr=udp%3A%2F%2Fexodus.desync.com%3A6969","seeders":0,"leechers":3,"uploader":null,"files":4,"time":1378811204,"description":"Complete name                      :The last secrets of the Axis of Evil. mp4  dvd rip\nFormat                                   : MPEG-4\nFormat profile                           : Base Media\nCodec ID                                 : isom\nFile size                                : 470 MiB\nDuration                                 : 49mn 17s\nOverall bit rate                         : 1 332 Kbps\nMovie name                               : The_Last_Secrets_Of_The_Axis_Of_Evil_mp4\nGenre                                    : Documentary_War\nWriting application                      : Lavf54.46.100\n\nID                                       : 1\nFormat                                   : MPEG-4 Visual\nFormat settings, BVOP                    : No\nFormat settings, QPel                    : No\nFormat settings, GMC                     : No warppoints\nFormat settings, Matrix                  : Default (H.263)\nCodec ID                                 : 20\nDuration                                 : 49mn 17s\nBit rate mode                            : Constant\nBit rate                                 : 1 200 Kbps\nWidth                                    : 720 pixels\nHeight                                   : 540 pixels\nDisplay aspect ratio                     : 4:3\nFrame rate mode                          : Constant\nFrame rate                               : 23.976 fps\nColor space                              : YUV\nChroma subsampling                       : 4:2:0\nBit depth                                : 8 bits\nScan type                                : Progressive\nCompression mode                         : Lossy\nBits/(Pixel*Frame)                       : 0.129\nStream size                              : 423 MiB (90%)\nWriting library                          : Lavc54.79.100\n\nID                                       : 2\nFormat                                   : AAC\nFormat/Info                              : Advanced Audio Codec\nFormat profile                           : LC\nCodec ID                                 : 40\nDuration                                 : 49mn 17s\nBit rate mode                            : Constant\nBit rate                                 : 128 Kbps\nChannel(s)                               : 2 channels\nChannel positions                        : Front: L R\nSampling rate                            : 44.1 KHz\nCompression mode                         : Lossy\nStream size                              : 45.1 MiB (10%)","torrent":{"xt":"urn:btih:8b07fc135d1be5e866f4daf33e1f3aed5992f3f8","amp;dn":"The+last+secrets+of+the+Axis+of+Evil.mp4+dvd+rip","amp;tr":["udp%3A%2F%2Ftracker.openbittorrent.com%3A80","udp%3A%2F%2Fopen.demonii.com%3A1337","udp%3A%2F%2Ftracker.coppersurfer.tk%3A6969","udp%3A%2F%2Fexodus.desync.com%3A6969"],"infoHash":"8b07fc135d1be5e866f4daf33e1f3aed5992f3f8","infoHashBuffer":{"type":"Buffer","data":[139,7,252,19,93,27,229,232,102,244,218,243,62,31,58,237,89,146,243,248]},"announce":[],"urlList":[]}}